<?xml version="1.0" encoding="UTF-8" standalone="no"?>
<!DOCTYPE svg PUBLIC "-//W3C//DTD SVG 1.1//EN"
 "http://www.w3.org/Graphics/SVG/1.1/DTD/svg11.dtd">
<!-- Generated by graphviz version 2.43.0 (0)
 -->
<!-- Title: utils.teaser_generator_hf.TeaserGenerator._load_model Pages: 1 -->
<svg width="584pt" height="50pt"
 viewBox="0.00 0.00 584.00 50.00" xmlns="http://www.w3.org/2000/svg" xmlns:xlink="http://www.w3.org/1999/xlink">
<g id="graph0" class="graph" transform="scale(1 1) rotate(0) translate(4 46)">
<title>utils.teaser_generator_hf.TeaserGenerator._load_model</title>
<polygon fill="white" stroke="transparent" points="-4,4 -4,-46 580,-46 580,4 -4,4"/>
<!-- Node1 -->
<g id="node1" class="node">
<title>Node1</title>
<g id="a_node1"><a xlink:title=" ">
<polygon fill="#bfbfbf" stroke="black" points="397,-6 397,-36 576,-36 576,-6 397,-6"/>
<text text-anchor="start" x="405" y="-24" font-family="Helvetica,sans-Serif" font-size="10.00">utils.teaser_generator</text>
<text text-anchor="middle" x="486.5" y="-13" font-family="Helvetica,sans-Serif" font-size="10.00">_hf.TeaserGenerator._load_model</text>
</a>
</g>
</g>
<!-- Node2 -->
<g id="node2" class="node">
<title>Node2</title>
<g id="a_node2"><a xlink:href="classutils_1_1teaser__generator__hf_1_1TeaserGenerator.html#a96da25867b5f125404b2c322dd34fad8" target="_top" xlink:title=" ">
<polygon fill="white" stroke="black" points="196,-0.5 196,-41.5 361,-41.5 361,-0.5 196,-0.5"/>
<text text-anchor="start" x="204" y="-29.5" font-family="Helvetica,sans-Serif" font-size="10.00">utils.teaser_generator</text>
<text text-anchor="start" x="204" y="-18.5" font-family="Helvetica,sans-Serif" font-size="10.00">_hf.TeaserGenerator._generate</text>
<text text-anchor="middle" x="278.5" y="-7.5" font-family="Helvetica,sans-Serif" font-size="10.00">_with_model</text>
</a>
</g>
</g>
<!-- Node1&#45;&gt;Node2 -->
<g id="edge1" class="edge">
<title>Node1&#45;&gt;Node2</title>
<path fill="none" stroke="midnightblue" d="M386.87,-21C378.25,-21 369.6,-21 361.15,-21"/>
<polygon fill="midnightblue" stroke="midnightblue" points="386.94,-24.5 396.94,-21 386.94,-17.5 386.94,-24.5"/>
</g>
<!-- Node3 -->
<g id="node3" class="node">
<title>Node3</title>
<g id="a_node3"><a xlink:href="classutils_1_1teaser__generator__hf_1_1TeaserGenerator.html#a4e17e01a87c4babb7b530a8e63a16ecb" target="_top" xlink:title=" ">
<polygon fill="white" stroke="black" points="0,-6 0,-36 160,-36 160,-6 0,-6"/>
<text text-anchor="start" x="8" y="-24" font-family="Helvetica,sans-Serif" font-size="10.00">utils.teaser_generator</text>
<text text-anchor="middle" x="80" y="-13" font-family="Helvetica,sans-Serif" font-size="10.00">_hf.TeaserGenerator.generate</text>
</a>
</g>
</g>
<!-- Node2&#45;&gt;Node3 -->
<g id="edge2" class="edge">
<title>Node2&#45;&gt;Node3</title>
<path fill="none" stroke="midnightblue" d="M185.85,-14.26C177.26,-14.23 168.62,-14.26 160.16,-14.36"/>
<polygon fill="midnightblue" stroke="midnightblue" points="185.85,-17.76 195.87,-14.34 185.9,-10.76 185.85,-17.76"/>
</g>
<!-- Node3&#45;&gt;Node2 -->
<g id="edge3" class="edge">
<title>Node3&#45;&gt;Node2</title>
<path fill="none" stroke="midnightblue" d="M170.44,-27.73C178.91,-27.77 187.48,-27.75 195.87,-27.66"/>
<polygon fill="midnightblue" stroke="midnightblue" points="170.19,-24.22 160.16,-27.64 170.13,-31.22 170.19,-24.22"/>
</g>
</g>
</svg>
