<?xml version="1.0" encoding="UTF-8" standalone="no"?>
<!DOCTYPE svg PUBLIC "-//W3C//DTD SVG 1.1//EN"
 "http://www.w3.org/Graphics/SVG/1.1/DTD/svg11.dtd">
<!-- Generated by graphviz version 2.43.0 (0)
 -->
<!-- Title: utils.ranking1.BuyerRanker._extract_base_features Pages: 1 -->
<svg width="368pt" height="116pt"
 viewBox="0.00 0.00 368.00 115.50" xmlns="http://www.w3.org/2000/svg" xmlns:xlink="http://www.w3.org/1999/xlink">
<g id="graph0" class="graph" transform="scale(1 1) rotate(0) translate(4 111.5)">
<title>utils.ranking1.BuyerRanker._extract_base_features</title>
<polygon fill="white" stroke="transparent" points="-4,4 -4,-111.5 364,-111.5 364,4 -4,4"/>
<!-- Node1 -->
<g id="node1" class="node">
<title>Node1</title>
<g id="a_node1"><a xlink:title=" ">
<polygon fill="#bfbfbf" stroke="black" points="209,-33 209,-63 360,-63 360,-33 209,-33"/>
<text text-anchor="start" x="217" y="-51" font-family="Helvetica,sans-Serif" font-size="10.00">utils.ranking1.BuyerRanker.</text>
<text text-anchor="middle" x="284.5" y="-40" font-family="Helvetica,sans-Serif" font-size="10.00">_extract_base_features</text>
</a>
</g>
</g>
<!-- Node2 -->
<g id="node2" class="node">
<title>Node2</title>
<g id="a_node2"><a xlink:href="classutils_1_1ranking1_1_1BuyerRanker.html#aeb8169e98d7c2d05c033a450a3abbb4a" target="_top" xlink:title=" ">
<polygon fill="white" stroke="black" points="6,-77 6,-107 167,-107 167,-77 6,-77"/>
<text text-anchor="start" x="14" y="-95" font-family="Helvetica,sans-Serif" font-size="10.00">utils.ranking1.BuyerRanker.</text>
<text text-anchor="middle" x="86.5" y="-84" font-family="Helvetica,sans-Serif" font-size="10.00">_extract_features_with_graph</text>
</a>
</g>
</g>
<!-- Node1&#45;&gt;Node2 -->
<g id="edge1" class="edge">
<title>Node1&#45;&gt;Node2</title>
<path fill="none" stroke="midnightblue" d="M206.58,-65.27C189.35,-69.14 171.22,-73.21 154.43,-76.97"/>
<polygon fill="midnightblue" stroke="midnightblue" points="207.61,-68.62 216.6,-63.02 206.07,-61.79 207.61,-68.62"/>
</g>
<!-- Node3 -->
<g id="node3" class="node">
<title>Node3</title>
<g id="a_node3"><a xlink:href="classutils_1_1ranking1_1_1BuyerRanker.html#a72e5ec41846633d38161ec7fd3947229" target="_top" xlink:title=" ">
<polygon fill="white" stroke="black" points="6,-38.5 6,-57.5 167,-57.5 167,-38.5 6,-38.5"/>
<text text-anchor="middle" x="86.5" y="-45.5" font-family="Helvetica,sans-Serif" font-size="10.00">utils.ranking1.BuyerRanker.fit</text>
</a>
</g>
</g>
<!-- Node1&#45;&gt;Node3 -->
<g id="edge2" class="edge">
<title>Node1&#45;&gt;Node3</title>
<path fill="none" stroke="midnightblue" d="M198.84,-48C188.33,-48 177.61,-48 167.17,-48"/>
<polygon fill="midnightblue" stroke="midnightblue" points="198.84,-51.5 208.84,-48 198.84,-44.5 198.84,-51.5"/>
</g>
<!-- Node4 -->
<g id="node4" class="node">
<title>Node4</title>
<g id="a_node4"><a xlink:href="classutils_1_1ranking1_1_1BuyerRanker.html#a5ad2af26d6460b4bd3241c93f0375003" target="_top" xlink:title=" ">
<polygon fill="white" stroke="black" points="0,-0.5 0,-19.5 173,-19.5 173,-0.5 0,-0.5"/>
<text text-anchor="middle" x="86.5" y="-7.5" font-family="Helvetica,sans-Serif" font-size="10.00">utils.ranking1.BuyerRanker.rank</text>
</a>
</g>
</g>
<!-- Node1&#45;&gt;Node4 -->
<g id="edge3" class="edge">
<title>Node1&#45;&gt;Node4</title>
<path fill="none" stroke="midnightblue" d="M198.85,-31.59C177.65,-27.48 155.61,-23.2 136.78,-19.55"/>
<polygon fill="midnightblue" stroke="midnightblue" points="198.36,-35.06 208.84,-33.53 199.69,-28.19 198.36,-35.06"/>
</g>
</g>
</svg>
