<?xml version="1.0" encoding="UTF-8" standalone="no"?>
<!DOCTYPE svg PUBLIC "-//W3C//DTD SVG 1.1//EN"
 "http://www.w3.org/Graphics/SVG/1.1/DTD/svg11.dtd">
<!-- Generated by graphviz version 2.43.0 (0)
 -->
<!-- Title: utils.document_access.DocumentAccessManager._safe_value Pages: 1 -->
<svg width="623pt" height="50pt"
 viewBox="0.00 0.00 623.00 50.00" xmlns="http://www.w3.org/2000/svg" xmlns:xlink="http://www.w3.org/1999/xlink">
<g id="graph0" class="graph" transform="scale(1 1) rotate(0) translate(4 46)">
<title>utils.document_access.DocumentAccessManager._safe_value</title>
<polygon fill="white" stroke="transparent" points="-4,4 -4,-46 619,-46 619,4 -4,4"/>
<!-- Node1 -->
<g id="node1" class="node">
<title>Node1</title>
<g id="a_node1"><a xlink:title=" ">
<polygon fill="#bfbfbf" stroke="black" points="434,-6 434,-36 615,-36 615,-6 434,-6"/>
<text text-anchor="start" x="442" y="-24" font-family="Helvetica,sans-Serif" font-size="10.00">utils.document_access.Document</text>
<text text-anchor="middle" x="524.5" y="-13" font-family="Helvetica,sans-Serif" font-size="10.00">AccessManager._safe_value</text>
</a>
</g>
</g>
<!-- Node2 -->
<g id="node2" class="node">
<title>Node2</title>
<g id="a_node2"><a xlink:href="classutils_1_1document__access_1_1DocumentAccessManager.html#ad5dfee84d18ac36664348d8914ef9f9f" target="_top" xlink:title=" ">
<polygon fill="white" stroke="black" points="217,-6 217,-36 398,-36 398,-6 217,-6"/>
<text text-anchor="start" x="225" y="-24" font-family="Helvetica,sans-Serif" font-size="10.00">utils.document_access.Document</text>
<text text-anchor="middle" x="307.5" y="-13" font-family="Helvetica,sans-Serif" font-size="10.00">AccessManager.get_full_dossier</text>
</a>
</g>
</g>
<!-- Node1&#45;&gt;Node2 -->
<g id="edge1" class="edge">
<title>Node1&#45;&gt;Node2</title>
<path fill="none" stroke="midnightblue" d="M423.63,-21C415.19,-21 406.68,-21 398.32,-21"/>
<polygon fill="midnightblue" stroke="midnightblue" points="423.88,-24.5 433.88,-21 423.88,-17.5 423.88,-24.5"/>
</g>
<!-- Node3 -->
<g id="node3" class="node">
<title>Node3</title>
<g id="a_node3"><a xlink:href="classutils_1_1document__access_1_1DocumentAccessManager.html#a4a58bf9f516872b7f7111f8bbadb09ed" target="_top" xlink:title=" ">
<polygon fill="white" stroke="black" points="0,-0.5 0,-41.5 181,-41.5 181,-0.5 0,-0.5"/>
<text text-anchor="start" x="8" y="-29.5" font-family="Helvetica,sans-Serif" font-size="10.00">utils.document_access.Document</text>
<text text-anchor="start" x="8" y="-18.5" font-family="Helvetica,sans-Serif" font-size="10.00">AccessManager.get_dossier</text>
<text text-anchor="middle" x="90.5" y="-7.5" font-family="Helvetica,sans-Serif" font-size="10.00">_as_json</text>
</a>
</g>
</g>
<!-- Node2&#45;&gt;Node3 -->
<g id="edge2" class="edge">
<title>Node2&#45;&gt;Node3</title>
<path fill="none" stroke="midnightblue" d="M206.63,-21C198.19,-21 189.68,-21 181.32,-21"/>
<polygon fill="midnightblue" stroke="midnightblue" points="206.88,-24.5 216.88,-21 206.88,-17.5 206.88,-24.5"/>
</g>
</g>
</svg>
