<?xml version="1.0" encoding="UTF-8" standalone="no"?>
<!DOCTYPE svg PUBLIC "-//W3C//DTD SVG 1.1//EN"
 "http://www.w3.org/Graphics/SVG/1.1/DTD/svg11.dtd">
<!-- Generated by graphviz version 2.43.0 (0)
 -->
<!-- Title: utils.df_gen.MADatasetGenerator.export_to_sql Pages: 1 -->
<svg width="657pt" height="39pt"
 viewBox="0.00 0.00 657.00 39.00" xmlns="http://www.w3.org/2000/svg" xmlns:xlink="http://www.w3.org/1999/xlink">
<g id="graph0" class="graph" transform="scale(1 1) rotate(0) translate(4 35)">
<title>utils.df_gen.MADatasetGenerator.export_to_sql</title>
<polygon fill="white" stroke="transparent" points="-4,4 -4,-35 653,-35 653,4 -4,4"/>
<!-- Node1 -->
<g id="node1" class="node">
<title>Node1</title>
<g id="a_node1"><a xlink:title=" ">
<polygon fill="#bfbfbf" stroke="black" points="0,-0.5 0,-30.5 213,-30.5 213,-0.5 0,-0.5"/>
<text text-anchor="start" x="8" y="-18.5" font-family="Helvetica,sans-Serif" font-size="10.00">utils.df_gen.MADatasetGenerator.export</text>
<text text-anchor="middle" x="106.5" y="-7.5" font-family="Helvetica,sans-Serif" font-size="10.00">_to_sql</text>
</a>
</g>
</g>
<!-- Node2 -->
<g id="node2" class="node">
<title>Node2</title>
<g id="a_node2"><a xlink:href="classutils_1_1df__gen_1_1MADatasetGenerator.html#a82dc892c4b04b9252690bd597c6586de" target="_top" xlink:title=" ">
<polygon fill="white" stroke="black" points="249,-0.5 249,-30.5 431,-30.5 431,-0.5 249,-0.5"/>
<text text-anchor="start" x="257" y="-18.5" font-family="Helvetica,sans-Serif" font-size="10.00">utils.df_gen.MADatasetGenerator.</text>
<text text-anchor="middle" x="340" y="-7.5" font-family="Helvetica,sans-Serif" font-size="10.00">_write_inserts</text>
</a>
</g>
</g>
<!-- Node1&#45;&gt;Node2 -->
<g id="edge1" class="edge">
<title>Node1&#45;&gt;Node2</title>
<path fill="none" stroke="midnightblue" d="M213.09,-15.5C221.57,-15.5 230.12,-15.5 238.56,-15.5"/>
<polygon fill="midnightblue" stroke="midnightblue" points="238.79,-19 248.79,-15.5 238.79,-12 238.79,-19"/>
</g>
<!-- Node3 -->
<g id="node3" class="node">
<title>Node3</title>
<g id="a_node3"><a xlink:href="classutils_1_1df__gen_1_1MADatasetGenerator.html#af635ed31545fc6de0fe53f7563874c4c" target="_top" xlink:title=" ">
<polygon fill="white" stroke="black" points="467,-0.5 467,-30.5 649,-30.5 649,-0.5 467,-0.5"/>
<text text-anchor="start" x="475" y="-18.5" font-family="Helvetica,sans-Serif" font-size="10.00">utils.df_gen.MADatasetGenerator.</text>
<text text-anchor="middle" x="558" y="-7.5" font-family="Helvetica,sans-Serif" font-size="10.00">_safe_sql_escape</text>
</a>
</g>
</g>
<!-- Node2&#45;&gt;Node3 -->
<g id="edge2" class="edge">
<title>Node2&#45;&gt;Node3</title>
<path fill="none" stroke="midnightblue" d="M431.04,-15.5C439.53,-15.5 448.16,-15.5 456.74,-15.5"/>
<polygon fill="midnightblue" stroke="midnightblue" points="456.76,-19 466.76,-15.5 456.76,-12 456.76,-19"/>
</g>
</g>
</svg>
