<?xml version="1.0" encoding="UTF-8" standalone="no"?>
<!DOCTYPE svg PUBLIC "-//W3C//DTD SVG 1.1//EN"
 "http://www.w3.org/Graphics/SVG/1.1/DTD/svg11.dtd">
<!-- Generated by graphviz version 2.43.0 (0)
 -->
<!-- Title: utils.ranking1.BuyerRanker._simulate_interest_label Pages: 1 -->
<svg width="356pt" height="66pt"
 viewBox="0.00 0.00 356.00 66.00" xmlns="http://www.w3.org/2000/svg" xmlns:xlink="http://www.w3.org/1999/xlink">
<g id="graph0" class="graph" transform="scale(1 1) rotate(0) translate(4 62)">
<title>utils.ranking1.BuyerRanker._simulate_interest_label</title>
<polygon fill="white" stroke="transparent" points="-4,4 -4,-62 352,-62 352,4 -4,4"/>
<!-- Node1 -->
<g id="node1" class="node">
<title>Node1</title>
<g id="a_node1"><a xlink:title=" ">
<polygon fill="#bfbfbf" stroke="black" points="197,-14 197,-44 348,-44 348,-14 197,-14"/>
<text text-anchor="start" x="205" y="-32" font-family="Helvetica,sans-Serif" font-size="10.00">utils.ranking1.BuyerRanker.</text>
<text text-anchor="middle" x="272.5" y="-21" font-family="Helvetica,sans-Serif" font-size="10.00">_simulate_interest_label</text>
</a>
</g>
</g>
<!-- Node2 -->
<g id="node2" class="node">
<title>Node2</title>
<g id="a_node2"><a xlink:href="classutils_1_1ranking_1_1BuyerRanker.html#a1c471f590e81b29b4996e3c7c67692bf" target="_top" xlink:title=" ">
<polygon fill="white" stroke="black" points="3,-38.5 3,-57.5 158,-57.5 158,-38.5 3,-38.5"/>
<text text-anchor="middle" x="80.5" y="-45.5" font-family="Helvetica,sans-Serif" font-size="10.00">utils.ranking.BuyerRanker.fit</text>
</a>
</g>
</g>
<!-- Node1&#45;&gt;Node2 -->
<g id="edge1" class="edge">
<title>Node1&#45;&gt;Node2</title>
<path fill="none" stroke="midnightblue" d="M186.98,-37.45C177.33,-38.42 167.55,-39.4 158.02,-40.35"/>
<polygon fill="midnightblue" stroke="midnightblue" points="187.35,-40.93 196.95,-36.45 186.65,-33.97 187.35,-40.93"/>
</g>
<!-- Node3 -->
<g id="node3" class="node">
<title>Node3</title>
<g id="a_node3"><a xlink:href="classutils_1_1ranking1_1_1BuyerRanker.html#a72e5ec41846633d38161ec7fd3947229" target="_top" xlink:title=" ">
<polygon fill="white" stroke="black" points="0,-0.5 0,-19.5 161,-19.5 161,-0.5 0,-0.5"/>
<text text-anchor="middle" x="80.5" y="-7.5" font-family="Helvetica,sans-Serif" font-size="10.00">utils.ranking1.BuyerRanker.fit</text>
</a>
</g>
</g>
<!-- Node1&#45;&gt;Node3 -->
<g id="edge2" class="edge">
<title>Node1&#45;&gt;Node3</title>
<path fill="none" stroke="midnightblue" d="M186.95,-20.55C178.38,-19.69 169.68,-18.82 161.16,-17.97"/>
<polygon fill="midnightblue" stroke="midnightblue" points="186.65,-24.03 196.95,-21.55 187.35,-17.07 186.65,-24.03"/>
</g>
</g>
</svg>
