<?xml version="1.0" encoding="UTF-8" standalone="no"?>
<!DOCTYPE svg PUBLIC "-//W3C//DTD SVG 1.1//EN"
 "http://www.w3.org/Graphics/SVG/1.1/DTD/svg11.dtd">
<!-- Generated by graphviz version 2.43.0 (0)
 -->
<!-- Title: utils.teaser_generator_hf.TeaserGenerator.generate Pages: 1 -->
<!--zoomable 110 -->
<svg id="main" version="1.1" xmlns="http://www.w3.org/2000/svg" xmlns:xlink="http://www.w3.org/1999/xlink" xml:space="preserve" onload="init(evt)">
<style type="text/css"><![CDATA[
.edge:hover path { stroke: red; }
.edge:hover polygon { stroke: red; fill: red; }
]]></style>
<script type="text/javascript"><![CDATA[
var edges = document.getElementsByTagName('g');
if (edges && edges.length) {
  for (var i=0;i<edges.length;i++) {
    if (edges[i].id.substr(0,4)=='edge') {
      edges[i].setAttribute('class','edge');
    }
  }
}
]]></script>
        <defs>
                <circle id="rim" cx="0" cy="0" r="7"/>
                <circle id="rim2" cx="0" cy="0" r="3.5"/>
                <g id="zoomPlus">
                        <use xlink:href="#rim" fill="#404040">
                                <set attributeName="fill" to="#808080" begin="zoomplus.mouseover" end="zoomplus.mouseout"/>
                        </use>
                        <path d="M-4,0h8M0,-4v8" fill="none" stroke="white" stroke-width="1.5" pointer-events="none"/>
                </g>
                <g id="zoomMin">
                        <use xlink:href="#rim" fill="#404040">
                                <set attributeName="fill" to="#808080" begin="zoomminus.mouseover" end="zoomminus.mouseout"/>
                        </use>
                        <path d="M-4,0h8" fill="none" stroke="white" stroke-width="1.5" pointer-events="none"/>
                </g>
                <g id="dirArrow">
                        <path fill="none" stroke="white" stroke-width="1.5" d="M0,-3.0v7 M-2.5,-0.5L0,-3.0L2.5,-0.5"/>
                </g>
               <g id="resetDef">
                       <use xlink:href="#rim2" fill="#404040">
                               <set attributeName="fill" to="#808080" begin="reset.mouseover" end="reset.mouseout"/>
                       </use>
               </g>
        </defs>

<script type="text/javascript">
var viewWidth = 584;
var viewHeight = 110;
var sectionId = 'dynsection-4';
</script>
<script xlink:href="svgpan.js"/>
<svg id="graph" class="graph">
<g id="viewport">
<title>utils.teaser_generator_hf.TeaserGenerator.generate</title>
<polygon fill="white" stroke="transparent" points="-4,4 -4,-106 580,-106 580,4 -4,4"/>
<!-- Node1 -->
<g id="node1" class="node">
<title>Node1</title>
<g id="a_node1"><a xlink:title=" ">
<polygon fill="#bfbfbf" stroke="black" points="0,-6 0,-36 160,-36 160,-6 0,-6"/>
<text text-anchor="start" x="8" y="-24" font-family="Helvetica,sans-Serif" font-size="10.00">utils.teaser_generator</text>
<text text-anchor="middle" x="80" y="-13" font-family="Helvetica,sans-Serif" font-size="10.00">_hf.TeaserGenerator.generate</text>
</a>
</g>
</g>
<!-- Node2 -->
<g id="node2" class="node">
<title>Node2</title>
<g id="a_node2"><a xlink:href="classutils_1_1teaser__generator__hf_1_1TeaserGenerator.html#a9f498c29e399796357f75ade6bc75ce6" target="_top" xlink:title=" ">
<polygon fill="white" stroke="black" points="196,-60.5 196,-101.5 361,-101.5 361,-60.5 196,-60.5"/>
<text text-anchor="start" x="204" y="-89.5" font-family="Helvetica,sans-Serif" font-size="10.00">utils.teaser_generator</text>
<text text-anchor="start" x="204" y="-78.5" font-family="Helvetica,sans-Serif" font-size="10.00">_hf.TeaserGenerator._generate</text>
<text text-anchor="middle" x="278.5" y="-67.5" font-family="Helvetica,sans-Serif" font-size="10.00">_fallback</text>
</a>
</g>
</g>
<!-- Node1&#45;&gt;Node2 -->
<g id="edge1" class="edge">
<title>Node1&#45;&gt;Node2</title>
<path fill="none" stroke="midnightblue" d="M130.33,-36.06C151.61,-42.56 177.01,-50.32 200.66,-57.54"/>
<polygon fill="midnightblue" stroke="midnightblue" points="199.74,-60.92 210.33,-60.49 201.78,-54.22 199.74,-60.92"/>
</g>
<!-- Node3 -->
<g id="node3" class="node">
<title>Node3</title>
<g id="a_node3"><a xlink:href="classutils_1_1teaser__generator__hf_1_1TeaserGenerator.html#a96da25867b5f125404b2c322dd34fad8" target="_top" xlink:title=" ">
<polygon fill="white" stroke="black" points="196,-0.5 196,-41.5 361,-41.5 361,-0.5 196,-0.5"/>
<text text-anchor="start" x="204" y="-29.5" font-family="Helvetica,sans-Serif" font-size="10.00">utils.teaser_generator</text>
<text text-anchor="start" x="204" y="-18.5" font-family="Helvetica,sans-Serif" font-size="10.00">_hf.TeaserGenerator._generate</text>
<text text-anchor="middle" x="278.5" y="-7.5" font-family="Helvetica,sans-Serif" font-size="10.00">_with_model</text>
</a>
</g>
</g>
<!-- Node1&#45;&gt;Node3 -->
<g id="edge2" class="edge">
<title>Node1&#45;&gt;Node3</title>
<path fill="none" stroke="midnightblue" d="M160.07,-14.37C168.51,-14.26 177.13,-14.23 185.7,-14.26"/>
<polygon fill="midnightblue" stroke="midnightblue" points="185.68,-17.76 195.7,-14.33 185.73,-10.76 185.68,-17.76"/>
</g>
<!-- Node3&#45;&gt;Node1 -->
<g id="edge4" class="edge">
<title>Node3&#45;&gt;Node1</title>
<path fill="none" stroke="midnightblue" d="M195.7,-27.67C187.32,-27.75 178.78,-27.77 170.33,-27.73"/>
<polygon fill="midnightblue" stroke="midnightblue" points="170.11,-24.22 160.07,-27.63 170.04,-31.22 170.11,-24.22"/>
</g>
<!-- Node4 -->
<g id="node4" class="node">
<title>Node4</title>
<g id="a_node4"><a xlink:href="classutils_1_1teaser__generator__hf_1_1TeaserGenerator.html#a5b60e298db6fb5ae1d4ac4f5128ecd76" target="_top" xlink:title=" ">
<polygon fill="white" stroke="black" points="397,-6 397,-36 576,-36 576,-6 397,-6"/>
<text text-anchor="start" x="405" y="-24" font-family="Helvetica,sans-Serif" font-size="10.00">utils.teaser_generator</text>
<text text-anchor="middle" x="486.5" y="-13" font-family="Helvetica,sans-Serif" font-size="10.00">_hf.TeaserGenerator._load_model</text>
</a>
</g>
</g>
<!-- Node3&#45;&gt;Node4 -->
<g id="edge3" class="edge">
<title>Node3&#45;&gt;Node4</title>
<path fill="none" stroke="midnightblue" d="M361.21,-21C369.61,-21 378.2,-21 386.76,-21"/>
<polygon fill="midnightblue" stroke="midnightblue" points="386.77,-24.5 396.77,-21 386.77,-17.5 386.77,-24.5"/>
</g>
</g>
</svg>
        <g id="navigator" transform="translate(0 0)" fill="#404254">
                <rect fill="#f2f5e9" fill-opacity="0.5" stroke="#606060" stroke-width=".5" x="0" y="0" width="60" height="60"/>
                <use id="zoomplus" xlink:href="#zoomPlus" x="17" y="9" onmousedown="handleZoom(evt,'in')"/>
                <use id="zoomminus" xlink:href="#zoomMin" x="42" y="9" onmousedown="handleZoom(evt,'out')"/>
                <use id="reset" xlink:href="#resetDef" x="30" y="36" onmousedown="handleReset()"/>
                <g id="arrowUp" xlink:href="#dirArrow" transform="translate(30 24)" onmousedown="handlePan(0,-1)">
                  <use xlink:href="#rim" fill="#404040">
                        <set attributeName="fill" to="#808080" begin="arrowUp.mouseover" end="arrowUp.mouseout"/>
                  </use>
                  <path fill="none" stroke="white" stroke-width="1.5" d="M0,-3.0v7 M-2.5,-0.5L0,-3.0L2.5,-0.5"/>
                </g>
                <g id="arrowRight" xlink:href="#dirArrow" transform="rotate(90) translate(36 -43)" onmousedown="handlePan(1,0)">
                  <use xlink:href="#rim" fill="#404040">
                        <set attributeName="fill" to="#808080" begin="arrowRight.mouseover" end="arrowRight.mouseout"/>
                  </use>
                  <path fill="none" stroke="white" stroke-width="1.5" d="M0,-3.0v7 M-2.5,-0.5L0,-3.0L2.5,-0.5"/>
                </g>
                <g id="arrowDown" xlink:href="#dirArrow" transform="rotate(180) translate(-30 -48)" onmousedown="handlePan(0,1)">
                  <use xlink:href="#rim" fill="#404040">
                        <set attributeName="fill" to="#808080" begin="arrowDown.mouseover" end="arrowDown.mouseout"/>
                  </use>
                  <path fill="none" stroke="white" stroke-width="1.5" d="M0,-3.0v7 M-2.5,-0.5L0,-3.0L2.5,-0.5"/>
                </g>
                <g id="arrowLeft" xlink:href="#dirArrow" transform="rotate(270) translate(-36 17)" onmousedown="handlePan(-1,0)">
                  <use xlink:href="#rim" fill="#404040">
                        <set attributeName="fill" to="#808080" begin="arrowLeft.mouseover" end="arrowLeft.mouseout"/>
                  </use>
                  <path fill="none" stroke="white" stroke-width="1.5" d="M0,-3.0v7 M-2.5,-0.5L0,-3.0L2.5,-0.5"/>
                </g>
        </g>
        <svg viewBox="0 0 15 15" width="100%" height="30px" preserveAspectRatio="xMaxYMin meet">
         <g id="arrow_out" transform="scale(0.3 0.3)">
          <a xlink:href="classutils_1_1teaser__generator__hf_1_1TeaserGenerator_a4e17e01a87c4babb7b530a8e63a16ecb_cgraph_org.svg" target="_base">
           <rect id="button" ry="5" rx="5" y="6" x="6" height="38" width="38"
                fill="#f2f5e9" fill-opacity="0.5" stroke="#606060" stroke-width="1.0"/>
           <path id="arrow"
             d="M 11.500037,31.436501 C 11.940474,20.09759 22.043105,11.32322 32.158766,21.979434 L 37.068811,17.246167 C 37.068811,17.246167 37.088388,32 37.088388,32 L 22.160133,31.978069 C 22.160133,31.978069 26.997745,27.140456 26.997745,27.140456 C 18.528582,18.264221 13.291696,25.230495 11.500037,31.436501 z"
             style="fill:#404040;"/>
          </a>
         </g>
        </svg>
</svg>
