<?xml version="1.0" encoding="UTF-8" standalone="no"?>
<!DOCTYPE svg PUBLIC "-//W3C//DTD SVG 1.1//EN"
 "http://www.w3.org/Graphics/SVG/1.1/DTD/svg11.dtd">
<!-- Generated by graphviz version 2.43.0 (0)
 -->
<!-- Title: utils.document_access.DocumentAccessManager.get_full_dossier Pages: 1 -->
<svg width="406pt" height="50pt"
 viewBox="0.00 0.00 406.00 50.00" xmlns="http://www.w3.org/2000/svg" xmlns:xlink="http://www.w3.org/1999/xlink">
<g id="graph0" class="graph" transform="scale(1 1) rotate(0) translate(4 46)">
<title>utils.document_access.DocumentAccessManager.get_full_dossier</title>
<polygon fill="white" stroke="transparent" points="-4,4 -4,-46 402,-46 402,4 -4,4"/>
<!-- Node1 -->
<g id="node1" class="node">
<title>Node1</title>
<g id="a_node1"><a xlink:title=" ">
<polygon fill="#bfbfbf" stroke="black" points="217,-6 217,-36 398,-36 398,-6 217,-6"/>
<text text-anchor="start" x="225" y="-24" font-family="Helvetica,sans-Serif" font-size="10.00">utils.document_access.Document</text>
<text text-anchor="middle" x="307.5" y="-13" font-family="Helvetica,sans-Serif" font-size="10.00">AccessManager.get_full_dossier</text>
</a>
</g>
</g>
<!-- Node2 -->
<g id="node2" class="node">
<title>Node2</title>
<g id="a_node2"><a xlink:href="classutils_1_1document__access_1_1DocumentAccessManager.html#a4a58bf9f516872b7f7111f8bbadb09ed" target="_top" xlink:title=" ">
<polygon fill="white" stroke="black" points="0,-0.5 0,-41.5 181,-41.5 181,-0.5 0,-0.5"/>
<text text-anchor="start" x="8" y="-29.5" font-family="Helvetica,sans-Serif" font-size="10.00">utils.document_access.Document</text>
<text text-anchor="start" x="8" y="-18.5" font-family="Helvetica,sans-Serif" font-size="10.00">AccessManager.get_dossier</text>
<text text-anchor="middle" x="90.5" y="-7.5" font-family="Helvetica,sans-Serif" font-size="10.00">_as_json</text>
</a>
</g>
</g>
<!-- Node1&#45;&gt;Node2 -->
<g id="edge1" class="edge">
<title>Node1&#45;&gt;Node2</title>
<path fill="none" stroke="midnightblue" d="M206.63,-21C198.19,-21 189.68,-21 181.32,-21"/>
<polygon fill="midnightblue" stroke="midnightblue" points="206.88,-24.5 216.88,-21 206.88,-17.5 206.88,-24.5"/>
</g>
</g>
</svg>
