<?xml version="1.0" encoding="UTF-8" standalone="no"?>
<!DOCTYPE svg PUBLIC "-//W3C//DTD SVG 1.1//EN"
 "http://www.w3.org/Graphics/SVG/1.1/DTD/svg11.dtd">
<!-- Generated by graphviz version 2.43.0 (0)
 -->
<!-- Title: utils.document_access.DocumentAccessManager.get_dossier_as_json Pages: 1 -->
<svg width="623pt" height="149pt"
 viewBox="0.00 0.00 623.00 148.50" xmlns="http://www.w3.org/2000/svg" xmlns:xlink="http://www.w3.org/1999/xlink">
<g id="graph0" class="graph" transform="scale(1 1) rotate(0) translate(4 144.5)">
<title>utils.document_access.DocumentAccessManager.get_dossier_as_json</title>
<polygon fill="white" stroke="transparent" points="-4,4 -4,-144.5 619,-144.5 619,4 -4,4"/>
<!-- Node1 -->
<g id="node1" class="node">
<title>Node1</title>
<g id="a_node1"><a xlink:title=" ">
<polygon fill="#bfbfbf" stroke="black" points="0,-44 0,-85 181,-85 181,-44 0,-44"/>
<text text-anchor="start" x="8" y="-73" font-family="Helvetica,sans-Serif" font-size="10.00">utils.document_access.Document</text>
<text text-anchor="start" x="8" y="-62" font-family="Helvetica,sans-Serif" font-size="10.00">AccessManager.get_dossier</text>
<text text-anchor="middle" x="90.5" y="-51" font-family="Helvetica,sans-Serif" font-size="10.00">_as_json</text>
</a>
</g>
</g>
<!-- Node2 -->
<g id="node2" class="node">
<title>Node2</title>
<g id="a_node2"><a xlink:href="classutils_1_1document__access_1_1DocumentAccessManager.html#ad5dfee84d18ac36664348d8914ef9f9f" target="_top" xlink:title=" ">
<polygon fill="white" stroke="black" points="217,-49.5 217,-79.5 398,-79.5 398,-49.5 217,-49.5"/>
<text text-anchor="start" x="225" y="-67.5" font-family="Helvetica,sans-Serif" font-size="10.00">utils.document_access.Document</text>
<text text-anchor="middle" x="307.5" y="-56.5" font-family="Helvetica,sans-Serif" font-size="10.00">AccessManager.get_full_dossier</text>
</a>
</g>
</g>
<!-- Node1&#45;&gt;Node2 -->
<g id="edge1" class="edge">
<title>Node1&#45;&gt;Node2</title>
<path fill="none" stroke="midnightblue" d="M181.12,-64.5C189.48,-64.5 197.98,-64.5 206.42,-64.5"/>
<polygon fill="midnightblue" stroke="midnightblue" points="206.68,-68 216.68,-64.5 206.68,-61 206.68,-68"/>
</g>
<!-- Node3 -->
<g id="node3" class="node">
<title>Node3</title>
<g id="a_node3"><a xlink:href="classutils_1_1document__access_1_1DocumentAccessManager.html#a4100f9909d6ce0257eb58f9574e82071" target="_top" xlink:title=" ">
<polygon fill="white" stroke="black" points="434,-99 434,-140 615,-140 615,-99 434,-99"/>
<text text-anchor="start" x="442" y="-128" font-family="Helvetica,sans-Serif" font-size="10.00">utils.document_access.Document</text>
<text text-anchor="start" x="442" y="-117" font-family="Helvetica,sans-Serif" font-size="10.00">AccessManager._calculate</text>
<text text-anchor="middle" x="524.5" y="-106" font-family="Helvetica,sans-Serif" font-size="10.00">_ebitda_margin</text>
</a>
</g>
</g>
<!-- Node2&#45;&gt;Node3 -->
<g id="edge2" class="edge">
<title>Node2&#45;&gt;Node3</title>
<path fill="none" stroke="midnightblue" d="M367.25,-79.53C387.61,-84.74 410.93,-90.7 433.24,-96.41"/>
<polygon fill="midnightblue" stroke="midnightblue" points="432.5,-99.83 443.06,-98.92 434.24,-93.05 432.5,-99.83"/>
</g>
<!-- Node4 -->
<g id="node4" class="node">
<title>Node4</title>
<g id="a_node4"><a xlink:href="classutils_1_1document__access_1_1DocumentAccessManager.html#a8fb0a8fc543b8b2659224e190ebd7095" target="_top" xlink:title=" ">
<polygon fill="white" stroke="black" points="434,-49.5 434,-79.5 615,-79.5 615,-49.5 434,-49.5"/>
<text text-anchor="start" x="442" y="-67.5" font-family="Helvetica,sans-Serif" font-size="10.00">utils.document_access.Document</text>
<text text-anchor="middle" x="524.5" y="-56.5" font-family="Helvetica,sans-Serif" font-size="10.00">AccessManager._safe_value</text>
</a>
</g>
</g>
<!-- Node2&#45;&gt;Node4 -->
<g id="edge3" class="edge">
<title>Node2&#45;&gt;Node4</title>
<path fill="none" stroke="midnightblue" d="M398.12,-64.5C406.48,-64.5 414.98,-64.5 423.42,-64.5"/>
<polygon fill="midnightblue" stroke="midnightblue" points="423.68,-68 433.68,-64.5 423.68,-61 423.68,-68"/>
</g>
<!-- Node5 -->
<g id="node5" class="node">
<title>Node5</title>
<g id="a_node5"><a xlink:href="classutils_1_1document__access_1_1DocumentAccessManager.html#a1e59501f78126cd3ea2f89b7845f9e3e" target="_top" xlink:title=" ">
<polygon fill="white" stroke="black" points="434,-0.5 434,-30.5 615,-30.5 615,-0.5 434,-0.5"/>
<text text-anchor="start" x="442" y="-18.5" font-family="Helvetica,sans-Serif" font-size="10.00">utils.document_access.Document</text>
<text text-anchor="middle" x="524.5" y="-7.5" font-family="Helvetica,sans-Serif" font-size="10.00">AccessManager.get_teaser</text>
</a>
</g>
</g>
<!-- Node2&#45;&gt;Node5 -->
<g id="edge4" class="edge">
<title>Node2&#45;&gt;Node5</title>
<path fill="none" stroke="midnightblue" d="M374.47,-49.47C397.69,-44.17 423.96,-38.19 447.9,-32.73"/>
<polygon fill="midnightblue" stroke="midnightblue" points="448.68,-36.14 457.66,-30.51 447.13,-29.32 448.68,-36.14"/>
</g>
</g>
</svg>
