<?xml version="1.0" encoding="UTF-8" standalone="no"?>
<!DOCTYPE svg PUBLIC "-//W3C//DTD SVG 1.1//EN"
 "http://www.w3.org/Graphics/SVG/1.1/DTD/svg11.dtd">
<!-- Generated by graphviz version 2.43.0 (0)
 -->
<!-- Title: utils.company_graph.CompanyConnectionGraph._cities_are_close Pages: 1 -->
<svg width="380pt" height="50pt"
 viewBox="0.00 0.00 380.00 50.00" xmlns="http://www.w3.org/2000/svg" xmlns:xlink="http://www.w3.org/1999/xlink">
<g id="graph0" class="graph" transform="scale(1 1) rotate(0) translate(4 46)">
<title>utils.company_graph.CompanyConnectionGraph._cities_are_close</title>
<polygon fill="white" stroke="transparent" points="-4,4 -4,-46 376,-46 376,4 -4,4"/>
<!-- Node1 -->
<g id="node1" class="node">
<title>Node1</title>
<g id="a_node1"><a xlink:title=" ">
<polygon fill="#bfbfbf" stroke="black" points="204,-0.5 204,-41.5 372,-41.5 372,-0.5 204,-0.5"/>
<text text-anchor="start" x="212" y="-29.5" font-family="Helvetica,sans-Serif" font-size="10.00">utils.company_graph.Company</text>
<text text-anchor="start" x="212" y="-18.5" font-family="Helvetica,sans-Serif" font-size="10.00">ConnectionGraph._cities</text>
<text text-anchor="middle" x="288" y="-7.5" font-family="Helvetica,sans-Serif" font-size="10.00">_are_close</text>
</a>
</g>
</g>
<!-- Node2 -->
<g id="node2" class="node">
<title>Node2</title>
<g id="a_node2"><a xlink:href="classutils_1_1company__graph_1_1CompanyConnectionGraph.html#adef76b14a73b847843112897804d4bbc" target="_top" xlink:title=" ">
<polygon fill="white" stroke="black" points="0,-6 0,-36 168,-36 168,-6 0,-6"/>
<text text-anchor="start" x="8" y="-24" font-family="Helvetica,sans-Serif" font-size="10.00">utils.company_graph.Company</text>
<text text-anchor="middle" x="84" y="-13" font-family="Helvetica,sans-Serif" font-size="10.00">ConnectionGraph.build</text>
</a>
</g>
</g>
<!-- Node1&#45;&gt;Node2 -->
<g id="edge1" class="edge">
<title>Node1&#45;&gt;Node2</title>
<path fill="none" stroke="midnightblue" d="M193.89,-21C185.27,-21 176.56,-21 168.04,-21"/>
<polygon fill="midnightblue" stroke="midnightblue" points="193.96,-24.5 203.96,-21 193.96,-17.5 193.96,-24.5"/>
</g>
</g>
</svg>
