<?xml version="1.0" encoding="UTF-8" standalone="no"?>
<!DOCTYPE svg PUBLIC "-//W3C//DTD SVG 1.1//EN"
 "http://www.w3.org/Graphics/SVG/1.1/DTD/svg11.dtd">
<!-- Generated by graphviz version 2.43.0 (0)
 -->
<!-- Title: utils.df_gen.MADatasetGenerator.generate_all Pages: 1 -->
<svg width="511pt" height="137pt"
 viewBox="0.00 0.00 511.00 137.00" xmlns="http://www.w3.org/2000/svg" xmlns:xlink="http://www.w3.org/1999/xlink">
<g id="graph0" class="graph" transform="scale(1 1) rotate(0) translate(4 133)">
<title>utils.df_gen.MADatasetGenerator.generate_all</title>
<polygon fill="white" stroke="transparent" points="-4,4 -4,-133 507,-133 507,4 -4,4"/>
<!-- Node1 -->
<g id="node1" class="node">
<title>Node1</title>
<g id="a_node1"><a xlink:title=" ">
<polygon fill="#bfbfbf" stroke="black" points="0,-55 0,-74 242,-74 242,-55 0,-55"/>
<text text-anchor="middle" x="121" y="-62" font-family="Helvetica,sans-Serif" font-size="10.00">utils.df_gen.MADatasetGenerator.generate_all</text>
</a>
</g>
</g>
<!-- Node2 -->
<g id="node2" class="node">
<title>Node2</title>
<g id="a_node2"><a xlink:href="classutils_1_1df__gen_1_1MADatasetGenerator.html#a3a4b76dc977c00e3c646ff3b45136657" target="_top" xlink:title=" ">
<polygon fill="white" stroke="black" points="278,-98.5 278,-128.5 503,-128.5 503,-98.5 278,-98.5"/>
<text text-anchor="start" x="286" y="-116.5" font-family="Helvetica,sans-Serif" font-size="10.00">utils.df_gen.MADatasetGenerator.generate</text>
<text text-anchor="middle" x="390.5" y="-105.5" font-family="Helvetica,sans-Serif" font-size="10.00">_buyers</text>
</a>
</g>
</g>
<!-- Node1&#45;&gt;Node2 -->
<g id="edge1" class="edge">
<title>Node1&#45;&gt;Node2</title>
<path fill="none" stroke="midnightblue" d="M173.89,-74.01C208.91,-80.42 256.1,-89.06 297.4,-96.63"/>
<polygon fill="midnightblue" stroke="midnightblue" points="297.02,-100.12 307.48,-98.48 298.28,-93.23 297.02,-100.12"/>
</g>
<!-- Node3 -->
<g id="node3" class="node">
<title>Node3</title>
<g id="a_node3"><a xlink:href="classutils_1_1df__gen_1_1MADatasetGenerator.html#a1b203406f27af2245f8d9dde27b2c7d9" target="_top" xlink:title=" ">
<polygon fill="white" stroke="black" points="278,-49.5 278,-79.5 503,-79.5 503,-49.5 278,-49.5"/>
<text text-anchor="start" x="286" y="-67.5" font-family="Helvetica,sans-Serif" font-size="10.00">utils.df_gen.MADatasetGenerator.generate</text>
<text text-anchor="middle" x="390.5" y="-56.5" font-family="Helvetica,sans-Serif" font-size="10.00">_deals</text>
</a>
</g>
</g>
<!-- Node1&#45;&gt;Node3 -->
<g id="edge2" class="edge">
<title>Node1&#45;&gt;Node3</title>
<path fill="none" stroke="midnightblue" d="M242.06,-64.5C250.64,-64.5 259.3,-64.5 267.9,-64.5"/>
<polygon fill="midnightblue" stroke="midnightblue" points="267.95,-68 277.95,-64.5 267.95,-61 267.95,-68"/>
</g>
<!-- Node4 -->
<g id="node4" class="node">
<title>Node4</title>
<g id="a_node4"><a xlink:href="classutils_1_1df__gen_1_1MADatasetGenerator.html#a283b3f3f11eebeea94d26ee8a432d70c" target="_top" xlink:title=" ">
<polygon fill="white" stroke="black" points="278,-0.5 278,-30.5 503,-30.5 503,-0.5 278,-0.5"/>
<text text-anchor="start" x="286" y="-18.5" font-family="Helvetica,sans-Serif" font-size="10.00">utils.df_gen.MADatasetGenerator.generate</text>
<text text-anchor="middle" x="390.5" y="-7.5" font-family="Helvetica,sans-Serif" font-size="10.00">_sellers</text>
</a>
</g>
</g>
<!-- Node1&#45;&gt;Node4 -->
<g id="edge3" class="edge">
<title>Node1&#45;&gt;Node4</title>
<path fill="none" stroke="midnightblue" d="M173.89,-54.99C208.91,-48.58 256.1,-39.94 297.4,-32.37"/>
<polygon fill="midnightblue" stroke="midnightblue" points="298.28,-35.77 307.48,-30.52 297.02,-28.88 298.28,-35.77"/>
</g>
</g>
</svg>
