<?xml version="1.0" encoding="UTF-8" standalone="no"?>
<!DOCTYPE svg PUBLIC "-//W3C//DTD SVG 1.1//EN"
 "http://www.w3.org/Graphics/SVG/1.1/DTD/svg11.dtd">
<!-- Generated by graphviz version 2.43.0 (0)
 -->
<!-- Title: utils.ranking.BuyerRanker._safe_literal_eval Pages: 1 -->
<svg width="532pt" height="88pt"
 viewBox="0.00 0.00 532.00 88.00" xmlns="http://www.w3.org/2000/svg" xmlns:xlink="http://www.w3.org/1999/xlink">
<g id="graph0" class="graph" transform="scale(1 1) rotate(0) translate(4 84)">
<title>utils.ranking.BuyerRanker._safe_literal_eval</title>
<polygon fill="white" stroke="transparent" points="-4,4 -4,-84 528,-84 528,4 -4,4"/>
<!-- Node1 -->
<g id="node1" class="node">
<title>Node1</title>
<g id="a_node1"><a xlink:title=" ">
<polygon fill="#bfbfbf" stroke="black" points="379,-24.5 379,-54.5 524,-54.5 524,-24.5 379,-24.5"/>
<text text-anchor="start" x="387" y="-42.5" font-family="Helvetica,sans-Serif" font-size="10.00">utils.ranking.BuyerRanker.</text>
<text text-anchor="middle" x="451.5" y="-31.5" font-family="Helvetica,sans-Serif" font-size="10.00">_safe_literal_eval</text>
</a>
</g>
</g>
<!-- Node2 -->
<g id="node2" class="node">
<title>Node2</title>
<g id="a_node2"><a xlink:href="classutils_1_1ranking_1_1BuyerRanker.html#a24bf8c001ccaeb90fd3f94957a307e53" target="_top" xlink:title=" ">
<polygon fill="white" stroke="black" points="194.5,-49.5 194.5,-79.5 339.5,-79.5 339.5,-49.5 194.5,-49.5"/>
<text text-anchor="start" x="202.5" y="-67.5" font-family="Helvetica,sans-Serif" font-size="10.00">utils.ranking.BuyerRanker.</text>
<text text-anchor="middle" x="267" y="-56.5" font-family="Helvetica,sans-Serif" font-size="10.00">_load_buyers</text>
</a>
</g>
</g>
<!-- Node1&#45;&gt;Node2 -->
<g id="edge1" class="edge">
<title>Node1&#45;&gt;Node2</title>
<path fill="none" stroke="midnightblue" d="M368.84,-50.69C359.12,-52.02 349.26,-53.37 339.7,-54.68"/>
<polygon fill="midnightblue" stroke="midnightblue" points="369.46,-54.13 378.89,-49.31 368.51,-47.2 369.46,-54.13"/>
</g>
<!-- Node4 -->
<g id="node4" class="node">
<title>Node4</title>
<g id="a_node4"><a xlink:href="classutils_1_1data__loader_1_1BuyerDataLoader.html#ab42cc03c44e5996a2a06548c4be1014a" target="_top" xlink:title=" ">
<polygon fill="white" stroke="black" points="191,-0.5 191,-30.5 343,-30.5 343,-0.5 191,-0.5"/>
<text text-anchor="start" x="199" y="-18.5" font-family="Helvetica,sans-Serif" font-size="10.00">utils.data_loader.BuyerData</text>
<text text-anchor="middle" x="267" y="-7.5" font-family="Helvetica,sans-Serif" font-size="10.00">Loader.load_buyers</text>
</a>
</g>
</g>
<!-- Node1&#45;&gt;Node4 -->
<g id="edge3" class="edge">
<title>Node1&#45;&gt;Node4</title>
<path fill="none" stroke="midnightblue" d="M368.86,-28.76C360.26,-27.63 351.53,-26.49 343.01,-25.36"/>
<polygon fill="midnightblue" stroke="midnightblue" points="368.52,-32.25 378.89,-30.08 369.44,-25.31 368.52,-32.25"/>
</g>
<!-- Node3 -->
<g id="node3" class="node">
<title>Node3</title>
<g id="a_node3"><a xlink:href="classutils_1_1ranking_1_1BuyerRanker.html#a1c471f590e81b29b4996e3c7c67692bf" target="_top" xlink:title=" ">
<polygon fill="white" stroke="black" points="0,-55 0,-74 155,-74 155,-55 0,-55"/>
<text text-anchor="middle" x="77.5" y="-62" font-family="Helvetica,sans-Serif" font-size="10.00">utils.ranking.BuyerRanker.fit</text>
</a>
</g>
</g>
<!-- Node2&#45;&gt;Node3 -->
<g id="edge2" class="edge">
<title>Node2&#45;&gt;Node3</title>
<path fill="none" stroke="midnightblue" d="M184.3,-64.5C174.61,-64.5 164.75,-64.5 155.14,-64.5"/>
<polygon fill="midnightblue" stroke="midnightblue" points="184.31,-68 194.31,-64.5 184.31,-61 184.31,-68"/>
</g>
</g>
</svg>
