<?xml version="1.0" encoding="UTF-8" standalone="no"?>
<!DOCTYPE svg PUBLIC "-//W3C//DTD SVG 1.1//EN"
 "http://www.w3.org/Graphics/SVG/1.1/DTD/svg11.dtd">
<!-- Generated by graphviz version 2.43.0 (0)
 -->
<!-- Title: utils.company_graph.CompanyConnectionGraph.build Pages: 1 -->
<svg width="397pt" height="100pt"
 viewBox="0.00 0.00 397.00 99.50" xmlns="http://www.w3.org/2000/svg" xmlns:xlink="http://www.w3.org/1999/xlink">
<g id="graph0" class="graph" transform="scale(1 1) rotate(0) translate(4 95.5)">
<title>utils.company_graph.CompanyConnectionGraph.build</title>
<polygon fill="white" stroke="transparent" points="-4,4 -4,-95.5 393,-95.5 393,4 -4,4"/>
<!-- Node1 -->
<g id="node1" class="node">
<title>Node1</title>
<g id="a_node1"><a xlink:title=" ">
<polygon fill="#bfbfbf" stroke="black" points="0,-27.5 0,-57.5 168,-57.5 168,-27.5 0,-27.5"/>
<text text-anchor="start" x="8" y="-45.5" font-family="Helvetica,sans-Serif" font-size="10.00">utils.company_graph.Company</text>
<text text-anchor="middle" x="84" y="-34.5" font-family="Helvetica,sans-Serif" font-size="10.00">ConnectionGraph.build</text>
</a>
</g>
</g>
<!-- Node2 -->
<g id="node2" class="node">
<title>Node2</title>
<g id="a_node2"><a xlink:href="classutils_1_1company__graph_1_1CompanyConnectionGraph.html#a142d3d848acc128353ff91c0b7818f45" target="_top" xlink:title=" ">
<polygon fill="white" stroke="black" points="212.5,-50 212.5,-91 380.5,-91 380.5,-50 212.5,-50"/>
<text text-anchor="start" x="220.5" y="-79" font-family="Helvetica,sans-Serif" font-size="10.00">utils.company_graph.Company</text>
<text text-anchor="start" x="220.5" y="-68" font-family="Helvetica,sans-Serif" font-size="10.00">ConnectionGraph._cities</text>
<text text-anchor="middle" x="296.5" y="-57" font-family="Helvetica,sans-Serif" font-size="10.00">_are_close</text>
</a>
</g>
</g>
<!-- Node1&#45;&gt;Node2 -->
<g id="edge1" class="edge">
<title>Node1&#45;&gt;Node2</title>
<path fill="none" stroke="midnightblue" d="M168.2,-53.57C179.39,-55.06 190.94,-56.59 202.3,-58.1"/>
<polygon fill="midnightblue" stroke="midnightblue" points="201.85,-61.57 212.22,-59.42 202.77,-54.63 201.85,-61.57"/>
</g>
<!-- Node3 -->
<g id="node3" class="node">
<title>Node3</title>
<g id="a_node3"><a xlink:href="classutils_1_1company__graph_1_1CompanyConnectionGraph.html#a1608d0b8fef4aa640d32ab77aef4c234" target="_top" xlink:title=" ">
<polygon fill="white" stroke="black" points="204,-0.5 204,-30.5 389,-30.5 389,-0.5 204,-0.5"/>
<text text-anchor="start" x="212" y="-18.5" font-family="Helvetica,sans-Serif" font-size="10.00">utils.company_graph.Company</text>
<text text-anchor="middle" x="296.5" y="-7.5" font-family="Helvetica,sans-Serif" font-size="10.00">ConnectionGraph._load_and_parse</text>
</a>
</g>
</g>
<!-- Node1&#45;&gt;Node3 -->
<g id="edge2" class="edge">
<title>Node1&#45;&gt;Node3</title>
<path fill="none" stroke="midnightblue" d="M168.2,-31.83C176.62,-30.75 185.24,-29.64 193.83,-28.54"/>
<polygon fill="midnightblue" stroke="midnightblue" points="194.42,-31.99 203.89,-27.25 193.53,-25.05 194.42,-31.99"/>
</g>
</g>
</svg>
