<?xml version="1.0" encoding="UTF-8" standalone="no"?>
<!DOCTYPE svg PUBLIC "-//W3C//DTD SVG 1.1//EN"
 "http://www.w3.org/Graphics/SVG/1.1/DTD/svg11.dtd">
<!-- Generated by graphviz version 2.43.0 (0)
 -->
<!-- Title: utils.ranking1.BuyerRanker.fit Pages: 1 -->
<svg width="356pt" height="137pt"
 viewBox="0.00 0.00 356.00 137.00" xmlns="http://www.w3.org/2000/svg" xmlns:xlink="http://www.w3.org/1999/xlink">
<g id="graph0" class="graph" transform="scale(1 1) rotate(0) translate(4 133)">
<title>utils.ranking1.BuyerRanker.fit</title>
<polygon fill="white" stroke="transparent" points="-4,4 -4,-133 352,-133 352,4 -4,4"/>
<!-- Node1 -->
<g id="node1" class="node">
<title>Node1</title>
<g id="a_node1"><a xlink:title=" ">
<polygon fill="#bfbfbf" stroke="black" points="0,-55 0,-74 161,-74 161,-55 0,-55"/>
<text text-anchor="middle" x="80.5" y="-62" font-family="Helvetica,sans-Serif" font-size="10.00">utils.ranking1.BuyerRanker.fit</text>
</a>
</g>
</g>
<!-- Node2 -->
<g id="node2" class="node">
<title>Node2</title>
<g id="a_node2"><a xlink:href="classutils_1_1ranking1_1_1BuyerRanker.html#a610d5a8f3ad666b0ce8b6e88792814cb" target="_top" xlink:title=" ">
<polygon fill="white" stroke="black" points="197,-98.5 197,-128.5 348,-128.5 348,-98.5 197,-98.5"/>
<text text-anchor="start" x="205" y="-116.5" font-family="Helvetica,sans-Serif" font-size="10.00">utils.ranking1.BuyerRanker.</text>
<text text-anchor="middle" x="272.5" y="-105.5" font-family="Helvetica,sans-Serif" font-size="10.00">_extract_base_features</text>
</a>
</g>
</g>
<!-- Node1&#45;&gt;Node2 -->
<g id="edge1" class="edge">
<title>Node1&#45;&gt;Node2</title>
<path fill="none" stroke="midnightblue" d="M118.58,-74.06C142.64,-80.27 174.71,-88.54 203.26,-95.9"/>
<polygon fill="midnightblue" stroke="midnightblue" points="202.64,-99.35 213.19,-98.46 204.38,-92.58 202.64,-99.35"/>
</g>
<!-- Node3 -->
<g id="node3" class="node">
<title>Node3</title>
<g id="a_node3"><a xlink:href="classutils_1_1ranking_1_1BuyerRanker.html#ae6b1cb3bc0900aaaea858730d353909c" target="_top" xlink:title=" ">
<polygon fill="white" stroke="black" points="200,-49.5 200,-79.5 345,-79.5 345,-49.5 200,-49.5"/>
<text text-anchor="start" x="208" y="-67.5" font-family="Helvetica,sans-Serif" font-size="10.00">utils.ranking.BuyerRanker.</text>
<text text-anchor="middle" x="272.5" y="-56.5" font-family="Helvetica,sans-Serif" font-size="10.00">_simulate_interest_label</text>
</a>
</g>
</g>
<!-- Node1&#45;&gt;Node3 -->
<g id="edge2" class="edge">
<title>Node1&#45;&gt;Node3</title>
<path fill="none" stroke="midnightblue" d="M161.25,-64.5C170.65,-64.5 180.25,-64.5 189.67,-64.5"/>
<polygon fill="midnightblue" stroke="midnightblue" points="189.81,-68 199.81,-64.5 189.81,-61 189.81,-68"/>
</g>
<!-- Node4 -->
<g id="node4" class="node">
<title>Node4</title>
<g id="a_node4"><a xlink:href="classutils_1_1ranking1_1_1BuyerRanker.html#acaeae86b4a9616ee0652f1f3a06b4f27" target="_top" xlink:title=" ">
<polygon fill="white" stroke="black" points="197,-0.5 197,-30.5 348,-30.5 348,-0.5 197,-0.5"/>
<text text-anchor="start" x="205" y="-18.5" font-family="Helvetica,sans-Serif" font-size="10.00">utils.ranking1.BuyerRanker.</text>
<text text-anchor="middle" x="272.5" y="-7.5" font-family="Helvetica,sans-Serif" font-size="10.00">_simulate_interest_label</text>
</a>
</g>
</g>
<!-- Node1&#45;&gt;Node4 -->
<g id="edge3" class="edge">
<title>Node1&#45;&gt;Node4</title>
<path fill="none" stroke="midnightblue" d="M118.58,-54.94C142.64,-48.73 174.71,-40.46 203.26,-33.1"/>
<polygon fill="midnightblue" stroke="midnightblue" points="204.38,-36.42 213.19,-30.54 202.64,-29.65 204.38,-36.42"/>
</g>
</g>
</svg>
