<?xml version="1.0" encoding="UTF-8" standalone="no"?>
<!DOCTYPE svg PUBLIC "-//W3C//DTD SVG 1.1//EN"
 "http://www.w3.org/Graphics/SVG/1.1/DTD/svg11.dtd">
<!-- Generated by graphviz version 2.43.0 (0)
 -->
<!-- Title: utils.buyer_response_simulator.BuyerResponseSimulator._calculate_personalization_score Pages: 1 -->
<svg width="479pt" height="50pt"
 viewBox="0.00 0.00 479.00 50.00" xmlns="http://www.w3.org/2000/svg" xmlns:xlink="http://www.w3.org/1999/xlink">
<g id="graph0" class="graph" transform="scale(1 1) rotate(0) translate(4 46)">
<title>utils.buyer_response_simulator.BuyerResponseSimulator._calculate_personalization_score</title>
<polygon fill="white" stroke="transparent" points="-4,4 -4,-46 475,-46 475,4 -4,4"/>
<!-- Node1 -->
<g id="node1" class="node">
<title>Node1</title>
<g id="a_node1"><a xlink:title=" ">
<polygon fill="#bfbfbf" stroke="black" points="275,-0.5 275,-41.5 471,-41.5 471,-0.5 275,-0.5"/>
<text text-anchor="start" x="283" y="-29.5" font-family="Helvetica,sans-Serif" font-size="10.00">utils.buyer_response</text>
<text text-anchor="start" x="283" y="-18.5" font-family="Helvetica,sans-Serif" font-size="10.00">_simulator.BuyerResponseSimulator.</text>
<text text-anchor="middle" x="373" y="-7.5" font-family="Helvetica,sans-Serif" font-size="10.00">_calculate_personalization_score</text>
</a>
</g>
</g>
<!-- Node2 -->
<g id="node2" class="node">
<title>Node2</title>
<g id="a_node2"><a xlink:href="classutils_1_1buyer__response__simulator_1_1BuyerResponseSimulator.html#a523cbf582265bb29bc9588f696242e40" target="_top" xlink:title=" ">
<polygon fill="white" stroke="black" points="0,-6 0,-36 239,-36 239,-6 0,-6"/>
<text text-anchor="start" x="8" y="-24" font-family="Helvetica,sans-Serif" font-size="10.00">utils.buyer_response</text>
<text text-anchor="middle" x="119.5" y="-13" font-family="Helvetica,sans-Serif" font-size="10.00">_simulator.BuyerResponseSimulator.simulate</text>
</a>
</g>
</g>
<!-- Node1&#45;&gt;Node2 -->
<g id="edge1" class="edge">
<title>Node1&#45;&gt;Node2</title>
<path fill="none" stroke="midnightblue" d="M264.62,-21C256.25,-21 247.77,-21 239.33,-21"/>
<polygon fill="midnightblue" stroke="midnightblue" points="264.76,-24.5 274.76,-21 264.76,-17.5 264.76,-24.5"/>
</g>
</g>
</svg>
