<?xml version="1.0" encoding="UTF-8" standalone="no"?>
<!DOCTYPE svg PUBLIC "-//W3C//DTD SVG 1.1//EN"
 "http://www.w3.org/Graphics/SVG/1.1/DTD/svg11.dtd">
<!-- Generated by graphviz version 2.43.0 (0)
 -->
<!-- Title: utils.teaser_generator_hf.TeaserGenerator._generate_with_model Pages: 1 -->
<svg width="589pt" height="94pt"
 viewBox="0.00 0.00 589.00 93.50" xmlns="http://www.w3.org/2000/svg" xmlns:xlink="http://www.w3.org/1999/xlink">
<g id="graph0" class="graph" transform="scale(1 1) rotate(0) translate(4 89.5)">
<title>utils.teaser_generator_hf.TeaserGenerator._generate_with_model</title>
<polygon fill="white" stroke="transparent" points="-4,4 -4,-89.5 585,-89.5 585,4 -4,4"/>
<!-- Node1 -->
<g id="node1" class="node">
<title>Node1</title>
<g id="a_node1"><a xlink:title=" ">
<polygon fill="#bfbfbf" stroke="black" points="0,-0.5 0,-41.5 165,-41.5 165,-0.5 0,-0.5"/>
<text text-anchor="start" x="8" y="-29.5" font-family="Helvetica,sans-Serif" font-size="10.00">utils.teaser_generator</text>
<text text-anchor="start" x="8" y="-18.5" font-family="Helvetica,sans-Serif" font-size="10.00">_hf.TeaserGenerator._generate</text>
<text text-anchor="middle" x="82.5" y="-7.5" font-family="Helvetica,sans-Serif" font-size="10.00">_with_model</text>
</a>
</g>
</g>
<!-- Node2 -->
<g id="node2" class="node">
<title>Node2</title>
<g id="a_node2"><a xlink:href="classutils_1_1teaser__generator__hf_1_1TeaserGenerator.html#a5b60e298db6fb5ae1d4ac4f5128ecd76" target="_top" xlink:title=" ">
<polygon fill="white" stroke="black" points="201,-55 201,-85 380,-85 380,-55 201,-55"/>
<text text-anchor="start" x="209" y="-73" font-family="Helvetica,sans-Serif" font-size="10.00">utils.teaser_generator</text>
<text text-anchor="middle" x="290.5" y="-62" font-family="Helvetica,sans-Serif" font-size="10.00">_hf.TeaserGenerator._load_model</text>
</a>
</g>
</g>
<!-- Node1&#45;&gt;Node2 -->
<g id="edge1" class="edge">
<title>Node1&#45;&gt;Node2</title>
<path fill="none" stroke="midnightblue" d="M165.21,-40.44C182.05,-44.44 199.68,-48.64 216.2,-52.56"/>
<polygon fill="midnightblue" stroke="midnightblue" points="215.78,-56.06 226.32,-54.97 217.4,-49.25 215.78,-56.06"/>
</g>
<!-- Node3 -->
<g id="node3" class="node">
<title>Node3</title>
<g id="a_node3"><a xlink:href="classutils_1_1teaser__generator__hf_1_1TeaserGenerator.html#a4e17e01a87c4babb7b530a8e63a16ecb" target="_top" xlink:title=" ">
<polygon fill="white" stroke="black" points="210.5,-6 210.5,-36 370.5,-36 370.5,-6 210.5,-6"/>
<text text-anchor="start" x="218.5" y="-24" font-family="Helvetica,sans-Serif" font-size="10.00">utils.teaser_generator</text>
<text text-anchor="middle" x="290.5" y="-13" font-family="Helvetica,sans-Serif" font-size="10.00">_hf.TeaserGenerator.generate</text>
</a>
</g>
</g>
<!-- Node1&#45;&gt;Node3 -->
<g id="edge2" class="edge">
<title>Node1&#45;&gt;Node3</title>
<path fill="none" stroke="midnightblue" d="M165.21,-14.38C176.68,-14.24 188.52,-14.21 200.12,-14.3"/>
<polygon fill="midnightblue" stroke="midnightblue" points="200.2,-17.8 210.24,-14.41 200.28,-10.8 200.2,-17.8"/>
</g>
<!-- Node3&#45;&gt;Node1 -->
<g id="edge4" class="edge">
<title>Node3&#45;&gt;Node1</title>
<path fill="none" stroke="midnightblue" d="M210.24,-27.59C198.83,-27.75 187,-27.79 175.37,-27.71"/>
<polygon fill="midnightblue" stroke="midnightblue" points="175.24,-24.21 165.21,-27.62 175.18,-31.21 175.24,-24.21"/>
</g>
<!-- Node4 -->
<g id="node4" class="node">
<title>Node4</title>
<g id="a_node4"><a xlink:href="classutils_1_1teaser__generator__hf_1_1TeaserGenerator.html#a9f498c29e399796357f75ade6bc75ce6" target="_top" xlink:title=" ">
<polygon fill="white" stroke="black" points="416,-0.5 416,-41.5 581,-41.5 581,-0.5 416,-0.5"/>
<text text-anchor="start" x="424" y="-29.5" font-family="Helvetica,sans-Serif" font-size="10.00">utils.teaser_generator</text>
<text text-anchor="start" x="424" y="-18.5" font-family="Helvetica,sans-Serif" font-size="10.00">_hf.TeaserGenerator._generate</text>
<text text-anchor="middle" x="498.5" y="-7.5" font-family="Helvetica,sans-Serif" font-size="10.00">_fallback</text>
</a>
</g>
</g>
<!-- Node3&#45;&gt;Node4 -->
<g id="edge3" class="edge">
<title>Node3&#45;&gt;Node4</title>
<path fill="none" stroke="midnightblue" d="M370.56,-21C382.05,-21 393.97,-21 405.69,-21"/>
<polygon fill="midnightblue" stroke="midnightblue" points="405.93,-24.5 415.93,-21 405.93,-17.5 405.93,-24.5"/>
</g>
</g>
</svg>
