<?xml version="1.0" encoding="UTF-8" standalone="no"?>
<!DOCTYPE svg PUBLIC "-//W3C//DTD SVG 1.1//EN"
 "http://www.w3.org/Graphics/SVG/1.1/DTD/svg11.dtd">
<!-- Generated by graphviz version 2.43.0 (0)
 -->
<!-- Title: utils.buyer_response_simulator.BuyerResponseSimulator.simulate Pages: 1 -->
<svg width="479pt" height="110pt"
 viewBox="0.00 0.00 479.00 110.00" xmlns="http://www.w3.org/2000/svg" xmlns:xlink="http://www.w3.org/1999/xlink">
<g id="graph0" class="graph" transform="scale(1 1) rotate(0) translate(4 106)">
<title>utils.buyer_response_simulator.BuyerResponseSimulator.simulate</title>
<polygon fill="white" stroke="transparent" points="-4,4 -4,-106 475,-106 475,4 -4,4"/>
<!-- Node1 -->
<g id="node1" class="node">
<title>Node1</title>
<g id="a_node1"><a xlink:title=" ">
<polygon fill="#bfbfbf" stroke="black" points="0,-36 0,-66 239,-66 239,-36 0,-36"/>
<text text-anchor="start" x="8" y="-54" font-family="Helvetica,sans-Serif" font-size="10.00">utils.buyer_response</text>
<text text-anchor="middle" x="119.5" y="-43" font-family="Helvetica,sans-Serif" font-size="10.00">_simulator.BuyerResponseSimulator.simulate</text>
</a>
</g>
</g>
<!-- Node2 -->
<g id="node2" class="node">
<title>Node2</title>
<g id="a_node2"><a xlink:href="classutils_1_1buyer__response__simulator_1_1BuyerResponseSimulator.html#ab01bcf0ee0d4215f19e2c481499b643c" target="_top" xlink:title=" ">
<polygon fill="white" stroke="black" points="275,-60.5 275,-101.5 471,-101.5 471,-60.5 275,-60.5"/>
<text text-anchor="start" x="283" y="-89.5" font-family="Helvetica,sans-Serif" font-size="10.00">utils.buyer_response</text>
<text text-anchor="start" x="283" y="-78.5" font-family="Helvetica,sans-Serif" font-size="10.00">_simulator.BuyerResponseSimulator.</text>
<text text-anchor="middle" x="373" y="-67.5" font-family="Helvetica,sans-Serif" font-size="10.00">_calculate_personalization_score</text>
</a>
</g>
</g>
<!-- Node1&#45;&gt;Node2 -->
<g id="edge1" class="edge">
<title>Node1&#45;&gt;Node2</title>
<path fill="none" stroke="midnightblue" d="M239.25,-65.17C247.85,-66.19 256.48,-67.22 265,-68.24"/>
<polygon fill="midnightblue" stroke="midnightblue" points="264.6,-71.71 274.94,-69.42 265.42,-64.76 264.6,-71.71"/>
</g>
<!-- Node3 -->
<g id="node3" class="node">
<title>Node3</title>
<g id="a_node3"><a xlink:href="classutils_1_1buyer__response__simulator_1_1BuyerResponseSimulator.html#ac7910b86097c290823e7fd642a4cd077" target="_top" xlink:title=" ">
<polygon fill="white" stroke="black" points="275,-0.5 275,-41.5 471,-41.5 471,-0.5 275,-0.5"/>
<text text-anchor="start" x="283" y="-29.5" font-family="Helvetica,sans-Serif" font-size="10.00">utils.buyer_response</text>
<text text-anchor="start" x="283" y="-18.5" font-family="Helvetica,sans-Serif" font-size="10.00">_simulator.BuyerResponseSimulator.</text>
<text text-anchor="middle" x="373" y="-7.5" font-family="Helvetica,sans-Serif" font-size="10.00">_get_base_nda_probability</text>
</a>
</g>
</g>
<!-- Node1&#45;&gt;Node3 -->
<g id="edge2" class="edge">
<title>Node1&#45;&gt;Node3</title>
<path fill="none" stroke="midnightblue" d="M239.25,-36.83C247.85,-35.81 256.48,-34.78 265,-33.76"/>
<polygon fill="midnightblue" stroke="midnightblue" points="265.42,-37.24 274.94,-32.58 264.6,-30.29 265.42,-37.24"/>
</g>
</g>
</svg>
