<?xml version="1.0" encoding="UTF-8" standalone="no"?>
<!DOCTYPE svg PUBLIC "-//W3C//DTD SVG 1.1//EN"
 "http://www.w3.org/Graphics/SVG/1.1/DTD/svg11.dtd">
<!-- Generated by graphviz version 2.43.0 (0)
 -->
<!-- Title: utils.ranking.BuyerRanker.fit Pages: 1 -->
<svg width="538pt" height="186pt"
 viewBox="0.00 0.00 538.00 186.00" xmlns="http://www.w3.org/2000/svg" xmlns:xlink="http://www.w3.org/1999/xlink">
<g id="graph0" class="graph" transform="scale(1 1) rotate(0) translate(4 182)">
<title>utils.ranking.BuyerRanker.fit</title>
<polygon fill="white" stroke="transparent" points="-4,4 -4,-182 534,-182 534,4 -4,4"/>
<!-- Node1 -->
<g id="node1" class="node">
<title>Node1</title>
<g id="a_node1"><a xlink:title=" ">
<polygon fill="#bfbfbf" stroke="black" points="0,-79 0,-98 155,-98 155,-79 0,-79"/>
<text text-anchor="middle" x="77.5" y="-86" font-family="Helvetica,sans-Serif" font-size="10.00">utils.ranking.BuyerRanker.fit</text>
</a>
</g>
</g>
<!-- Node2 -->
<g id="node2" class="node">
<title>Node2</title>
<g id="a_node2"><a xlink:href="classutils_1_1ranking_1_1BuyerRanker.html#a1108203e935c51c7784c57bab8898022" target="_top" xlink:title=" ">
<polygon fill="white" stroke="black" points="194,-147.5 194,-177.5 339,-177.5 339,-147.5 194,-147.5"/>
<text text-anchor="start" x="202" y="-165.5" font-family="Helvetica,sans-Serif" font-size="10.00">utils.ranking.BuyerRanker.</text>
<text text-anchor="middle" x="266.5" y="-154.5" font-family="Helvetica,sans-Serif" font-size="10.00">_extract_features</text>
</a>
</g>
</g>
<!-- Node1&#45;&gt;Node2 -->
<g id="edge1" class="edge">
<title>Node1&#45;&gt;Node2</title>
<path fill="none" stroke="midnightblue" d="M98.55,-98.19C120.84,-108.78 158.06,-125.91 191,-138.5 196.08,-140.44 201.39,-142.36 206.73,-144.22"/>
<polygon fill="midnightblue" stroke="midnightblue" points="205.76,-147.58 216.35,-147.49 208.01,-140.95 205.76,-147.58"/>
</g>
<!-- Node3 -->
<g id="node3" class="node">
<title>Node3</title>
<g id="a_node3"><a xlink:href="classutils_1_1ranking_1_1BuyerRanker.html#a24bf8c001ccaeb90fd3f94957a307e53" target="_top" xlink:title=" ">
<polygon fill="white" stroke="black" points="194,-98.5 194,-128.5 339,-128.5 339,-98.5 194,-98.5"/>
<text text-anchor="start" x="202" y="-116.5" font-family="Helvetica,sans-Serif" font-size="10.00">utils.ranking.BuyerRanker.</text>
<text text-anchor="middle" x="266.5" y="-105.5" font-family="Helvetica,sans-Serif" font-size="10.00">_load_buyers</text>
</a>
</g>
</g>
<!-- Node1&#45;&gt;Node3 -->
<g id="edge2" class="edge">
<title>Node1&#45;&gt;Node3</title>
<path fill="none" stroke="midnightblue" d="M149.73,-98.02C160.91,-99.52 172.53,-101.07 183.92,-102.59"/>
<polygon fill="midnightblue" stroke="midnightblue" points="183.47,-106.06 193.85,-103.92 184.4,-99.13 183.47,-106.06"/>
</g>
<!-- Node6 -->
<g id="node6" class="node">
<title>Node6</title>
<g id="a_node6"><a xlink:href="classutils_1_1ranking_1_1BuyerRanker.html#ae6b1cb3bc0900aaaea858730d353909c" target="_top" xlink:title=" ">
<polygon fill="white" stroke="black" points="194,-49.5 194,-79.5 339,-79.5 339,-49.5 194,-49.5"/>
<text text-anchor="start" x="202" y="-67.5" font-family="Helvetica,sans-Serif" font-size="10.00">utils.ranking.BuyerRanker.</text>
<text text-anchor="middle" x="266.5" y="-56.5" font-family="Helvetica,sans-Serif" font-size="10.00">_simulate_interest_label</text>
</a>
</g>
</g>
<!-- Node1&#45;&gt;Node6 -->
<g id="edge5" class="edge">
<title>Node1&#45;&gt;Node6</title>
<path fill="none" stroke="midnightblue" d="M152.68,-78.98C162.85,-77.67 173.34,-76.33 183.64,-75.01"/>
<polygon fill="midnightblue" stroke="midnightblue" points="184.38,-78.44 193.85,-73.7 183.49,-71.5 184.38,-78.44"/>
</g>
<!-- Node7 -->
<g id="node7" class="node">
<title>Node7</title>
<g id="a_node7"><a xlink:href="classutils_1_1ranking1_1_1BuyerRanker.html#acaeae86b4a9616ee0652f1f3a06b4f27" target="_top" xlink:title=" ">
<polygon fill="white" stroke="black" points="191,-0.5 191,-30.5 342,-30.5 342,-0.5 191,-0.5"/>
<text text-anchor="start" x="199" y="-18.5" font-family="Helvetica,sans-Serif" font-size="10.00">utils.ranking1.BuyerRanker.</text>
<text text-anchor="middle" x="266.5" y="-7.5" font-family="Helvetica,sans-Serif" font-size="10.00">_simulate_interest_label</text>
</a>
</g>
</g>
<!-- Node1&#45;&gt;Node7 -->
<g id="edge6" class="edge">
<title>Node1&#45;&gt;Node7</title>
<path fill="none" stroke="midnightblue" d="M99.45,-78.97C121.89,-68.9 158.65,-52.81 191,-40.5 196.86,-38.27 203.01,-36.04 209.17,-33.87"/>
<polygon fill="midnightblue" stroke="midnightblue" points="210.5,-37.12 218.8,-30.54 208.21,-30.5 210.5,-37.12"/>
</g>
<!-- Node4 -->
<g id="node4" class="node">
<title>Node4</title>
<g id="a_node4"><a xlink:href="classutils_1_1ranking_1_1BuyerRanker.html#aa5bb8d0802c05ac924f716e79d16682c" target="_top" xlink:title=" ">
<polygon fill="white" stroke="black" points="381.5,-122.5 381.5,-152.5 526.5,-152.5 526.5,-122.5 381.5,-122.5"/>
<text text-anchor="start" x="389.5" y="-140.5" font-family="Helvetica,sans-Serif" font-size="10.00">utils.ranking.BuyerRanker.</text>
<text text-anchor="middle" x="454" y="-129.5" font-family="Helvetica,sans-Serif" font-size="10.00">_safe_literal_eval</text>
</a>
</g>
</g>
<!-- Node3&#45;&gt;Node4 -->
<g id="edge3" class="edge">
<title>Node3&#45;&gt;Node4</title>
<path fill="none" stroke="midnightblue" d="M339.22,-122.78C349.73,-124.14 360.61,-125.55 371.3,-126.93"/>
<polygon fill="midnightblue" stroke="midnightblue" points="371.11,-130.43 381.47,-128.25 372,-123.49 371.11,-130.43"/>
</g>
<!-- Node5 -->
<g id="node5" class="node">
<title>Node5</title>
<g id="a_node5"><a xlink:href="classutils_1_1data__loader_1_1BuyerDataLoader.html#afe88ee990356b21e8c1c2f4d4b132fd9" target="_top" xlink:title=" ">
<polygon fill="white" stroke="black" points="378,-73.5 378,-103.5 530,-103.5 530,-73.5 378,-73.5"/>
<text text-anchor="start" x="386" y="-91.5" font-family="Helvetica,sans-Serif" font-size="10.00">utils.data_loader.BuyerData</text>
<text text-anchor="middle" x="454" y="-80.5" font-family="Helvetica,sans-Serif" font-size="10.00">Loader._safe_literal_eval</text>
</a>
</g>
</g>
<!-- Node3&#45;&gt;Node5 -->
<g id="edge4" class="edge">
<title>Node3&#45;&gt;Node5</title>
<path fill="none" stroke="midnightblue" d="M339.22,-103.83C348.6,-102.57 358.29,-101.26 367.86,-99.97"/>
<polygon fill="midnightblue" stroke="midnightblue" points="368.35,-103.44 377.79,-98.64 367.41,-96.5 368.35,-103.44"/>
</g>
</g>
</svg>
