<?xml version="1.0" encoding="UTF-8" standalone="no"?>
<!DOCTYPE svg PUBLIC "-//W3C//DTD SVG 1.1//EN"
 "http://www.w3.org/Graphics/SVG/1.1/DTD/svg11.dtd">
<!-- Generated by graphviz version 2.43.0 (0)
 -->
<!-- Title: utils.teaser_generator_hf.TeaserGenerator._generate_fallback Pages: 1 -->
<svg width="570pt" height="50pt"
 viewBox="0.00 0.00 570.00 50.00" xmlns="http://www.w3.org/2000/svg" xmlns:xlink="http://www.w3.org/1999/xlink">
<g id="graph0" class="graph" transform="scale(1 1) rotate(0) translate(4 46)">
<title>utils.teaser_generator_hf.TeaserGenerator._generate_fallback</title>
<polygon fill="white" stroke="transparent" points="-4,4 -4,-46 566,-46 566,4 -4,4"/>
<!-- Node1 -->
<g id="node1" class="node">
<title>Node1</title>
<g id="a_node1"><a xlink:title=" ">
<polygon fill="#bfbfbf" stroke="black" points="397,-0.5 397,-41.5 562,-41.5 562,-0.5 397,-0.5"/>
<text text-anchor="start" x="405" y="-29.5" font-family="Helvetica,sans-Serif" font-size="10.00">utils.teaser_generator</text>
<text text-anchor="start" x="405" y="-18.5" font-family="Helvetica,sans-Serif" font-size="10.00">_hf.TeaserGenerator._generate</text>
<text text-anchor="middle" x="479.5" y="-7.5" font-family="Helvetica,sans-Serif" font-size="10.00">_fallback</text>
</a>
</g>
</g>
<!-- Node2 -->
<g id="node2" class="node">
<title>Node2</title>
<g id="a_node2"><a xlink:href="classutils_1_1teaser__generator__hf_1_1TeaserGenerator.html#a4e17e01a87c4babb7b530a8e63a16ecb" target="_top" xlink:title=" ">
<polygon fill="white" stroke="black" points="201,-6 201,-36 361,-36 361,-6 201,-6"/>
<text text-anchor="start" x="209" y="-24" font-family="Helvetica,sans-Serif" font-size="10.00">utils.teaser_generator</text>
<text text-anchor="middle" x="281" y="-13" font-family="Helvetica,sans-Serif" font-size="10.00">_hf.TeaserGenerator.generate</text>
</a>
</g>
</g>
<!-- Node1&#45;&gt;Node2 -->
<g id="edge1" class="edge">
<title>Node1&#45;&gt;Node2</title>
<path fill="none" stroke="midnightblue" d="M386.85,-21C378.26,-21 369.62,-21 361.16,-21"/>
<polygon fill="midnightblue" stroke="midnightblue" points="386.87,-24.5 396.87,-21 386.87,-17.5 386.87,-24.5"/>
</g>
<!-- Node3 -->
<g id="node3" class="node">
<title>Node3</title>
<g id="a_node3"><a xlink:href="classutils_1_1teaser__generator__hf_1_1TeaserGenerator.html#a96da25867b5f125404b2c322dd34fad8" target="_top" xlink:title=" ">
<polygon fill="white" stroke="black" points="0,-0.5 0,-41.5 165,-41.5 165,-0.5 0,-0.5"/>
<text text-anchor="start" x="8" y="-29.5" font-family="Helvetica,sans-Serif" font-size="10.00">utils.teaser_generator</text>
<text text-anchor="start" x="8" y="-18.5" font-family="Helvetica,sans-Serif" font-size="10.00">_hf.TeaserGenerator._generate</text>
<text text-anchor="middle" x="82.5" y="-7.5" font-family="Helvetica,sans-Serif" font-size="10.00">_with_model</text>
</a>
</g>
</g>
<!-- Node2&#45;&gt;Node3 -->
<g id="edge2" class="edge">
<title>Node2&#45;&gt;Node3</title>
<path fill="none" stroke="midnightblue" d="M190.67,-14.27C182.22,-14.23 173.68,-14.25 165.3,-14.33"/>
<polygon fill="midnightblue" stroke="midnightblue" points="190.89,-17.78 200.93,-14.37 190.96,-10.78 190.89,-17.78"/>
</g>
<!-- Node3&#45;&gt;Node2 -->
<g id="edge3" class="edge">
<title>Node3&#45;&gt;Node2</title>
<path fill="none" stroke="midnightblue" d="M175.3,-27.74C183.87,-27.77 192.49,-27.74 200.93,-27.63"/>
<polygon fill="midnightblue" stroke="midnightblue" points="175.32,-24.24 165.3,-27.67 175.27,-31.24 175.32,-24.24"/>
</g>
</g>
</svg>
