<?xml version="1.0" encoding="UTF-8" standalone="no"?>
<!DOCTYPE svg PUBLIC "-//W3C//DTD SVG 1.1//EN"
 "http://www.w3.org/Graphics/SVG/1.1/DTD/svg11.dtd">
<!-- Generated by graphviz version 2.43.0 (0)
 -->
<!-- Title: utils.auction_simulator.AuctionSimulator.calculate_multiplier Pages: 1 -->
<svg width="337pt" height="50pt"
 viewBox="0.00 0.00 337.00 50.00" xmlns="http://www.w3.org/2000/svg" xmlns:xlink="http://www.w3.org/1999/xlink">
<g id="graph0" class="graph" transform="scale(1 1) rotate(0) translate(4 46)">
<title>utils.auction_simulator.AuctionSimulator.calculate_multiplier</title>
<polygon fill="white" stroke="transparent" points="-4,4 -4,-46 333,-46 333,4 -4,4"/>
<!-- Node1 -->
<g id="node1" class="node">
<title>Node1</title>
<g id="a_node1"><a xlink:title=" ">
<polygon fill="#bfbfbf" stroke="black" points="182,-0.5 182,-41.5 329,-41.5 329,-0.5 182,-0.5"/>
<text text-anchor="start" x="190" y="-29.5" font-family="Helvetica,sans-Serif" font-size="10.00">utils.auction_simulator.</text>
<text text-anchor="start" x="190" y="-18.5" font-family="Helvetica,sans-Serif" font-size="10.00">AuctionSimulator.calculate</text>
<text text-anchor="middle" x="255.5" y="-7.5" font-family="Helvetica,sans-Serif" font-size="10.00">_multiplier</text>
</a>
</g>
</g>
<!-- Node2 -->
<g id="node2" class="node">
<title>Node2</title>
<g id="a_node2"><a xlink:href="classutils_1_1auction__simulator_1_1AuctionSimulator.html#aefd731c6521ec95307800030fcc36c96" target="_top" xlink:title=" ">
<polygon fill="white" stroke="black" points="0,-6 0,-36 146,-36 146,-6 0,-6"/>
<text text-anchor="start" x="8" y="-24" font-family="Helvetica,sans-Serif" font-size="10.00">utils.auction_simulator.</text>
<text text-anchor="middle" x="73" y="-13" font-family="Helvetica,sans-Serif" font-size="10.00">AuctionSimulator.simulate</text>
</a>
</g>
</g>
<!-- Node1&#45;&gt;Node2 -->
<g id="edge1" class="edge">
<title>Node1&#45;&gt;Node2</title>
<path fill="none" stroke="midnightblue" d="M171.59,-21C163.11,-21 154.54,-21 146.19,-21"/>
<polygon fill="midnightblue" stroke="midnightblue" points="171.86,-24.5 181.86,-21 171.86,-17.5 171.86,-24.5"/>
</g>
</g>
</svg>
